<?xml version="1.0" encoding="UTF-8"?>
<svg width="402px" height="368px" viewBox="0 0 402 368" version="1.1" xmlns="http://www.w3.org/2000/svg" xmlns:xlink="http://www.w3.org/1999/xlink">
    <!-- Generator: Sketch 54.1 (76490) - https://sketchapp.com -->
    <title>编组 21</title>
    <desc>Created with Sketch.</desc>
    <g id="页面-1" stroke="none" stroke-width="1" fill="none" fill-rule="evenodd">
        <g id="预览" transform="translate(-605.000000, -611.000000)">
            <g id="编组-22" transform="translate(606.000000, 612.000000)">
                <g id="编组-21">
                    <rect id="蒙版" stroke="#DCDCDC" fill="#FFFFFF" x="-0.5" y="-0.5" width="401" height="367" rx="2"></rect>
                    <g id="编组-11" transform="translate(23.000000, 43.000000)">
                        <rect id="矩形" fill="#F7F7F7" x="0" y="67.7027027" width="347" height="36.1081081" rx="3"></rect>
                        <path d="M171.364865,-1.31450406e-13 C172.390541,-1.31450406e-13 173.237838,0.162210728 173.906757,0.486632185 C174.560811,0.811053641 174.887838,1.224691 174.887838,1.74376533 C174.887838,2.24661859 174.531081,2.70080863 173.847297,3.11444598 C173.431081,3.35776207 172.687838,3.66596246 171.647297,4.04715767 C170.562162,4.43646342 169.908108,4.77710595 169.67027,5.06908526 L174.902703,5.06908526 L174.902703,5.90447051 L167.5,5.90447051 C167.5,5.31240135 167.841892,4.80143756 168.555405,4.36346859 C168.941892,4.1201525 169.759459,3.7632889 170.993243,3.30098832 C171.677027,3.04145115 172.152703,2.82246667 172.45,2.65214541 C172.910811,2.36827663 173.148649,2.06007625 173.148649,1.73565479 C173.148649,1.41934387 172.985135,1.18413832 172.687838,1.03003812 C172.375676,0.875937933 171.914865,0.802943105 171.305405,0.802943105 C170.651351,0.802943105 170.160811,0.924601151 169.833784,1.16791724 C169.506757,1.39501226 169.328378,1.74376533 169.298649,2.19795537 L167.559459,2.19795537 C167.574324,1.54911245 167.916216,1.03003812 168.6,0.63262184 C169.298649,0.210873947 170.22027,-1.31450406e-13 171.364865,-1.31450406e-13 Z M180.12027,-1.31450406e-13 C181.354054,-1.31450406e-13 182.32027,0.275758238 183.018919,0.843495787 C183.672973,1.37879119 184,2.10062893 184,3.00900901 C184,3.91738909 183.672973,4.63922683 183.018919,5.17452223 C182.32027,5.73414924 181.354054,6.01801802 180.12027,6.01801802 C178.871622,6.01801802 177.905405,5.73414924 177.221622,5.17452223 C176.567568,4.63922683 176.240541,3.91738909 176.240541,3.00900901 C176.240541,2.10062893 176.567568,1.37879119 177.221622,0.843495787 C177.905405,0.275758238 178.871622,-1.31450406e-13 180.12027,-1.31450406e-13 Z M180.12027,0.802943105 C179.272973,0.802943105 178.678378,1.05436973 178.336486,1.57344406 C178.098649,1.92219713 177.97973,2.40071878 177.97973,3.00900901 C177.97973,3.6091887 178.098649,4.08771035 178.336486,4.44457395 C178.678378,4.95553775 179.272973,5.21507491 180.12027,5.21507491 C180.952703,5.21507491 181.547297,4.95553775 181.904054,4.44457395 C182.141892,4.08771035 182.260811,3.6091887 182.260811,3.00900901 C182.260811,2.40071878 182.141892,1.92219713 181.904054,1.57344406 C181.547297,1.05436973 180.952703,0.802943105 180.12027,0.802943105 Z" id="20" fill="#CCCCCC" fill-rule="nonzero"></path>
                        <path d="M170.74,17.045045 C172.396,17.045045 173.764,17.3197703 174.844,17.8692209 C175.9,18.4186714 176.428,19.1192209 176.428,19.9983417 C176.428,20.8499901 175.852,21.6192209 174.748,22.3197703 C174.076,22.7318582 172.876,23.2538363 171.196,23.8994406 C169.444,24.5587813 168.388,25.1357044 168.004,25.6302099 L176.452,25.6302099 L176.452,27.045045 L164.5,27.045045 C164.5,26.0422978 165.052,25.1769132 166.204,24.4351549 C166.828,24.023067 168.148,23.4186714 170.14,22.6357044 C171.244,22.1961439 172.012,21.8252648 172.492,21.5368033 C173.236,21.0560341 173.62,20.534056 173.62,19.9846055 C173.62,19.4488912 173.356,19.0505396 172.876,18.7895505 C172.372,18.5285615 171.628,18.4049352 170.644,18.4049352 C169.588,18.4049352 168.796,18.6109791 168.268,19.023067 C167.74,19.4076824 167.452,19.9983417 167.404,20.7675725 L164.596,20.7675725 C164.62,19.6686714 165.172,18.7895505 166.276,18.1164736 C167.404,17.4021879 168.892,17.045045 170.74,17.045045 Z M183.244,17.2373527 L185.356,17.2373527 L185.356,27.045045 L182.548,27.045045 L182.548,19.1741659 C181.516,19.7098802 180.22,20.1082319 178.636,20.3692209 L178.636,18.7758143 C179.404,18.6659242 180.22,18.4736165 181.084,18.1988912 C181.948,17.8966934 182.668,17.5807593 183.244,17.2373527 Z" id="21" fill="#CCCCCC" fill-rule="nonzero"></path>
                        <path d="M167.02,40.6216216 C168.883,40.6216216 170.422,41.0271484 171.637,41.8382021 C172.825,42.6492557 173.419,43.6833491 173.419,44.9810349 C173.419,46.2381681 172.771,47.3736432 171.529,48.4077366 C170.773,49.0160268 169.423,49.7865278 167.533,50.7395158 C165.562,51.7127802 164.374,52.5643865 163.942,53.2943348 L173.446,53.2943348 L173.446,55.3827979 L160,55.3827979 C160,53.902625 160.621,52.6252155 161.917,51.5302931 C162.619,50.9220029 164.104,50.0298439 166.345,48.8740924 C167.587,48.2252495 168.451,47.6777883 168.991,47.2519851 C169.828,46.5423132 170.26,45.7718122 170.26,44.9607586 C170.26,44.1699813 169.963,43.5819674 169.423,43.1967169 C168.856,42.8114665 168.019,42.6289794 166.912,42.6289794 C165.724,42.6289794 164.833,42.9331245 164.239,43.5414147 C163.645,44.1091523 163.321,44.9810349 163.267,46.11651 L160.108,46.11651 C160.135,44.4944028 160.756,43.1967169 161.998,42.2031762 C163.267,41.1488065 164.941,40.6216216 167.02,40.6216216 Z M183.112,40.6216216 C185.056,40.6216216 186.649,40.9663194 187.837,41.6759914 C188.998,42.3856633 189.592,43.3589277 189.592,44.6160608 C189.592,46.1976154 188.512,47.2519851 186.379,47.77917 C187.513,48.0427624 188.404,48.4280129 188.998,48.9551978 C189.646,49.502659 189.97,50.2123309 189.97,51.0639373 C189.97,52.4021758 189.349,53.4970982 188.107,54.3487045 C186.811,55.2205872 185.11,55.6666667 183.004,55.6666667 C181.006,55.6666667 179.386,55.2814162 178.171,54.5109152 C176.821,53.6593089 176.065,52.4021758 175.903,50.7800685 L179.116,50.7800685 C179.17,51.7127802 179.548,52.4427284 180.304,52.949637 C180.979,53.4159928 181.87,53.6593089 182.977,53.6593089 C184.192,53.6593089 185.164,53.3957165 185.866,52.8888079 C186.487,52.4224521 186.811,51.8547146 186.811,51.165319 C186.811,50.333989 186.46,49.7256987 185.812,49.3404483 C185.164,48.9349214 184.219,48.7524344 182.977,48.7524344 L181.627,48.7524344 L181.627,46.9681164 L182.977,46.9681164 C184.111,46.9681164 184.975,46.7856293 185.569,46.4206552 C186.136,46.055681 186.433,45.5082198 186.433,44.7985479 C186.433,44.0888759 186.163,43.5616911 185.65,43.1967169 C185.083,42.8317428 184.246,42.6492557 183.139,42.6492557 C182.005,42.6492557 181.141,42.8520191 180.52,43.2778223 C179.872,43.7036255 179.494,44.3524684 179.386,45.224351 L176.281,45.224351 C176.443,43.7644545 177.145,42.6289794 178.441,41.8179257 C179.656,41.0068721 181.222,40.6216216 183.112,40.6216216 Z" id="23" fill="#CCCCCC" fill-rule="nonzero"></path>
                        <text id="25" font-family="PingFangSC-Semibold, PingFang SC" font-size="30" font-weight="500" fill="#23D540">
                            <tspan x="157" y="96.7567568">25</tspan>
                        </text>
                        <path d="M171.433482,160.981982 C172.494196,160.981982 173.363393,161.119861 174.011607,161.40373 C174.645089,161.687599 174.969196,162.076904 174.969196,162.579758 C174.969196,163.212379 174.379911,163.634127 173.216071,163.845001 C173.834821,163.950438 174.320982,164.104539 174.645089,164.315412 C174.998661,164.534397 175.175446,164.818266 175.175446,165.158908 C175.175446,165.694204 174.836607,166.132173 174.158929,166.472815 C173.451786,166.821568 172.523661,167 171.374554,167 C170.284375,167 169.400446,166.8459 168.7375,166.537699 C168.000893,166.197057 167.588393,165.694204 167.5,165.045361 L169.253125,165.045361 C169.282589,165.418445 169.488839,165.710425 169.901339,165.913188 C170.269643,166.09973 170.755804,166.197057 171.359821,166.197057 C172.022768,166.197057 172.553125,166.09162 172.936161,165.888857 C173.275,165.702314 173.451786,165.475219 173.451786,165.199461 C173.451786,164.866929 173.260268,164.623613 172.906696,164.469513 C172.553125,164.307302 172.0375,164.234307 171.359821,164.234307 L170.623214,164.234307 L170.623214,163.52058 L171.359821,163.52058 C171.978571,163.52058 172.45,163.447585 172.774107,163.301595 C173.083482,163.155606 173.245536,162.936621 173.245536,162.652752 C173.245536,162.368884 173.098214,162.15801 172.818304,162.01202 C172.508929,161.86603 172.052232,161.793036 171.448214,161.793036 C170.829464,161.793036 170.358036,161.874141 170.019196,162.044462 C169.665625,162.214784 169.459375,162.474321 169.400446,162.823074 L167.70625,162.823074 C167.794643,162.239115 168.177679,161.784925 168.884821,161.460504 C169.547768,161.136082 170.402232,160.981982 171.433482,160.981982 Z M177.105357,161.095529 L183.513839,161.095529 L183.513839,161.930915 L178.490179,161.930915 L178.195536,163.52058 L178.239732,163.52058 C178.563839,163.342148 178.932143,163.212379 179.359375,163.131274 C179.742411,163.050169 180.169643,163.009616 180.641071,163.009616 C181.628125,163.009616 182.438393,163.188048 183.057143,163.544911 C183.675893,163.901775 184,164.396518 184,165.021029 C184,165.621209 183.5875,166.107841 182.7625,166.489036 C181.996429,166.829679 181.097768,167 180.051786,167 C179.094196,167 178.269196,166.85401 177.591518,166.570142 C176.825446,166.253831 176.412946,165.823972 176.339286,165.288677 L178.033482,165.288677 C178.107143,165.604988 178.328125,165.840193 178.711161,165.994293 C179.035268,166.124062 179.491964,166.197057 180.066518,166.197057 C180.685268,166.197057 181.215625,166.09162 181.642857,165.880746 C182.055357,165.669872 182.276339,165.386003 182.276339,165.02914 C182.276339,164.639834 182.084821,164.331634 181.73125,164.112649 C181.377679,163.885554 180.847321,163.780117 180.169643,163.780117 C179.712946,163.780117 179.315179,163.82067 178.991071,163.909886 C178.622768,164.007212 178.342857,164.153202 178.136607,164.355965 L176.530804,164.355965 L177.105357,161.095529 Z" id="35" fill="#CCCCCC" fill-rule="nonzero"></path>
                        <path d="M167.02,114.342342 C168.883,114.342342 170.422,114.666764 171.637,115.315607 C172.825,115.96445 173.419,116.791724 173.419,117.829873 C173.419,118.83558 172.771,119.74396 171.529,120.571234 C170.773,121.057866 169.423,121.674267 167.533,122.436658 C165.562,123.215269 164.374,123.896554 163.942,124.480513 L173.446,124.480513 L173.446,126.151283 L160,126.151283 C160,124.967145 160.621,123.945217 161.917,123.06928 C162.619,122.582647 164.104,121.86892 166.345,120.944319 C167.587,120.425245 168.451,119.987276 168.991,119.646633 C169.828,119.078896 170.26,118.462495 170.26,117.813652 C170.26,117.18103 169.963,116.710619 169.423,116.402419 C168.856,116.094218 168.019,115.948229 166.912,115.948229 C165.724,115.948229 164.833,116.191545 164.239,116.678177 C163.645,117.132367 163.321,117.829873 163.267,118.738253 L160.108,118.738253 C160.135,117.440567 160.756,116.402419 161.998,115.607586 C163.267,114.76409 164.941,114.342342 167.02,114.342342 Z M182.707,114.342342 C185.056,114.342342 186.865,114.845196 188.107,115.867123 C189.349,116.87283 189.97,118.251621 189.97,120.035939 C189.97,121.917583 189.295,123.458585 187.999,124.626503 C186.676,125.79442 184.894,126.378378 182.68,126.378378 C178.873,126.378378 176.74,125.324009 176.281,123.215269 L179.359,123.215269 C179.737,124.28586 180.844,124.821155 182.707,124.821155 C183.976,124.821155 185.002,124.43185 185.785,123.68568 C186.514,122.971953 186.892,122.079794 186.892,121.009203 L186.892,120.863214 L186.757,120.863214 C186.19,121.333625 185.515,121.690488 184.732,121.917583 C183.976,122.128457 183.112,122.242005 182.14,122.242005 C180.25,122.242005 178.711,121.86892 177.577,121.122751 C176.443,120.409024 175.903,119.484422 175.903,118.348947 C175.903,117.18103 176.551,116.223987 177.847,115.477817 C179.143,114.715427 180.763,114.342342 182.707,114.342342 Z M182.815,115.915786 C181.681,115.915786 180.763,116.142881 180.061,116.597071 C179.359,117.051262 179.035,117.63522 179.035,118.348947 C179.035,119.062675 179.359,119.630412 180.061,120.05216 C180.709,120.473908 181.627,120.701003 182.815,120.701003 C183.976,120.701003 184.894,120.473908 185.569,120.05216 C186.217,119.614191 186.568,119.030232 186.568,118.284063 C186.568,117.537894 186.217,116.970156 185.515,116.548408 C184.813,116.12666 183.895,115.915786 182.815,115.915786 Z" id="29" fill="#CCCCCC" fill-rule="nonzero"></path>
                        <path d="M167.908,141.423423 C169.636,141.423423 171.052,141.630242 172.108,142.056045 C173.14,142.481848 173.668,143.065807 173.668,143.820087 C173.668,144.76902 172.708,145.401642 170.812,145.717952 C171.82,145.876108 172.612,146.107258 173.14,146.423569 C173.716,146.752046 174.004,147.177849 174.004,147.688813 C174.004,148.491756 173.452,149.148709 172.348,149.659673 C171.196,150.182803 169.684,150.45045 167.812,150.45045 C166.036,150.45045 164.596,150.2193 163.516,149.757 C162.316,149.246036 161.644,148.491756 161.5,147.518492 L164.356,147.518492 C164.404,148.078119 164.74,148.516088 165.412,148.820233 C166.012,149.100046 166.804,149.246036 167.788,149.246036 C168.868,149.246036 169.732,149.08788 170.356,148.783735 C170.908,148.503922 171.196,148.163279 171.196,147.749642 C171.196,147.250844 170.884,146.88587 170.308,146.654719 C169.732,146.411403 168.892,146.301911 167.788,146.301911 L166.588,146.301911 L166.588,145.23132 L167.788,145.23132 C168.796,145.23132 169.564,145.121828 170.092,144.902844 C170.596,144.683859 170.86,144.355382 170.86,143.929579 C170.86,143.503776 170.62,143.187465 170.164,142.968481 C169.66,142.749496 168.916,142.640004 167.932,142.640004 C166.924,142.640004 166.156,142.761662 165.604,143.017144 C165.028,143.272626 164.692,143.661931 164.596,144.185061 L161.836,144.185061 C161.98,143.309123 162.604,142.627838 163.756,142.141206 C164.836,141.654574 166.228,141.423423 167.908,141.423423 Z M182.404,141.423423 C184.06,141.423423 185.428,141.66674 186.508,142.153372 C187.564,142.640004 188.092,143.26046 188.092,144.039071 C188.092,144.793351 187.516,145.474636 186.412,146.095092 C185.74,146.460067 184.54,146.922367 182.86,147.49416 C181.108,148.078119 180.052,148.589082 179.668,149.027051 L188.116,149.027051 L188.116,150.280129 L176.164,150.280129 C176.164,149.392025 176.716,148.62558 177.868,147.968626 C178.492,147.603652 179.812,147.068357 181.804,146.374906 C182.908,145.9856 183.676,145.657123 184.156,145.401642 C184.9,144.975838 185.284,144.513538 185.284,144.026906 C185.284,143.552439 185.02,143.199631 184.54,142.968481 C184.036,142.73733 183.292,142.627838 182.308,142.627838 C181.252,142.627838 180.46,142.810325 179.932,143.175299 C179.404,143.515942 179.116,144.039071 179.068,144.720356 L176.26,144.720356 C176.284,143.747092 176.836,142.968481 177.94,142.372356 C179.068,141.739734 180.556,141.423423 182.404,141.423423 Z" id="32" fill="#CCCCCC" fill-rule="nonzero"></path>
                    </g>
                </g>
            </g>
        </g>
    </g>
</svg>