<?xml version="1.0" encoding="UTF-8"?>
<svg width="402px" height="368px" viewBox="0 0 402 368" version="1.1" xmlns="http://www.w3.org/2000/svg" xmlns:xlink="http://www.w3.org/1999/xlink">
    <!-- Generator: Sketch 54.1 (76490) - https://sketchapp.com -->
    <title>编组 39</title>
    <desc>Created with Sketch.</desc>
    <g id="页面-1" stroke="none" stroke-width="1" fill="none" fill-rule="evenodd">
        <g id="预览" transform="translate(-605.000000, -1609.000000)">
            <g id="编组-40" transform="translate(606.000000, 1610.000000)">
                <g id="编组-39">
                    <rect id="蒙版" stroke="#DCDCDC" fill="#FFFFFF" x="-0.5" y="-0.5" width="401" height="367" rx="2"></rect>
                    <g id="编组-7" transform="translate(29.000000, 49.000000)">
                        <g id="编组-6">
                            <path d="M334.970602,141.5 L31.5747464,141.618113" id="Line-Copy-11" stroke="#CCCCCC" opacity="0.5" stroke-linecap="square"></path>
                            <path d="M334.970602,111.5 L31.5747464,111.618113" id="Line-Copy-11复制" stroke="#CCCCCC" opacity="0.5" stroke-linecap="square"></path>
                            <path d="M334.970602,81.5 L31.5747464,81.6181129" id="Line-Copy-11复制-2" stroke="#CCCCCC" opacity="0.5" stroke-linecap="square"></path>
                            <path d="M334.970602,48.5 L31.5747464,48.6181129" id="Line-Copy-11复制-3" stroke="#CCCCCC" opacity="0.5" stroke-linecap="square"></path>
                            <path d="M334.970602,11.5 L31.5747464,11.6181129" id="Line-Copy-11复制-4" stroke="#CCCCCC" opacity="0.5" stroke-linecap="square"></path>
                            <text id="01:00" font-family="PingFang-SC-Regular, PingFang SC" font-size="14" font-weight="normal" letter-spacing="0.7097536" fill="#CCCCCC">
                                <tspan x="29.119616" y="173">01:00</tspan>
                            </text>
                            <text id="0" font-family="PingFang-SC-Regular, PingFang SC" font-size="14" font-weight="normal" letter-spacing="0.7097536" fill="#CCCCCC">
                                <tspan x="9.4451232" y="147">0</tspan>
                            </text>
                            <text id="10" font-family="PingFang-SC-Regular, PingFang SC" font-size="14" font-weight="normal" letter-spacing="0.7097536" fill="#CCCCCC">
                                <tspan x="0.3902464" y="114">10</tspan>
                            </text>
                            <text id="20" font-family="PingFang-SC-Regular, PingFang SC" font-size="14" font-weight="normal" letter-spacing="0.7097536" fill="#CCCCCC">
                                <tspan x="0.3902464" y="81">20</tspan>
                            </text>
                            <text id="30" font-family="PingFang-SC-Regular, PingFang SC" font-size="14" font-weight="normal" letter-spacing="0.7097536" fill="#CCCCCC">
                                <tspan x="0.3902464" y="48">30</tspan>
                            </text>
                            <text id="40" font-family="PingFang-SC-Regular, PingFang SC" font-size="14" font-weight="normal" letter-spacing="0.7097536" fill="#CCCCCC">
                                <tspan x="0.3902464" y="15">40</tspan>
                            </text>
                            <text id="02:00" font-family="PingFang-SC-Regular, PingFang SC" font-size="14" font-weight="normal" letter-spacing="0.7097536" fill="#CCCCCC">
                                <tspan x="94.869616" y="173">02:00</tspan>
                            </text>
                            <text id="03:00" font-family="PingFang-SC-Regular, PingFang SC" font-size="14" font-weight="normal" letter-spacing="0.7097536" fill="#CCCCCC">
                                <tspan x="160.619616" y="173">03:00</tspan>
                            </text>
                            <text id="04:00" font-family="PingFang-SC-Regular, PingFang SC" font-size="14" font-weight="normal" letter-spacing="0.7097536" fill="#CCCCCC">
                                <tspan x="226.369616" y="173">04:00</tspan>
                            </text>
                            <text id="05:00" font-family="PingFang-SC-Regular, PingFang SC" font-size="14" font-weight="normal" letter-spacing="0.7097536" fill="#CCCCCC">
                                <tspan x="292.119616" y="173">05:00</tspan>
                            </text>
                        </g>
                    </g>
                    <polygon id="Graph-segment" fill-opacity="0.428977273" fill="#F67B58" points="60.640707 127.359137 78.0778532 124.222835 95.8111689 117.899141 104.893701 111.275162 112.309787 115.034971 121.300178 108.622651 130.049684 113.404261 139.087462 115.034971 148.239759 108.622651 156.991898 113.404261 165.873035 111.275162 175.491305 115.034971 183.031124 117.899141 192.796821 113.404261 200.672298 120.702836 210.114183 113.404261 218.684671 108.622651 228.251605 106.524832 236.781288 102.214501 245.48604 99 253.096939 102.214501 261.93727 104.951467 270.480116 100.928909 279.983868 113.404261 288.764965 108.622651 297.721132 104.951467 306.481169 111.275162 315.701914 106.524832 324.615959 103.67943 332.737586 100.928909 341.884617 104.951467 351.874087 102.214501 359.695595 108.622651 361 190 60 190"></polygon>
                    <polyline id="Graph-segment" stroke="#FC642D" stroke-width="2" points="60 126 77.4922532 123.014008 95.281612 116.993382 104.392848 110.686863 111.832371 114.26648 120.851174 108.161477 129.628332 112.713923 138.694672 114.26648 147.875894 108.161477 156.655692 112.713923 165.564897 110.686863 175.213564 114.26648 182.77721 116.993382 192.57377 112.713923 200.474136 119.662708 209.945861 112.713923 218.543435 108.161477 228.140604 106.164197 236.697243 102.060443 245.429505 99 253.064456 102.060443 261.932727 104.666238 270.502571 100.836465 280.036357 112.713923 288.845206 108.161477 297.829677 104.666238 306.617398 110.686863 315.867284 106.164197 324.8095 103.455164 332.956794 100.836465 342.132734 104.666238 352.153773 102.060443 360 108.161477"></polyline>
                </g>
            </g>
        </g>
    </g>
</svg>