<?xml version="1.0" encoding="UTF-8"?>
<svg width="402px" height="368px" viewBox="0 0 402 368" version="1.1" xmlns="http://www.w3.org/2000/svg" xmlns:xlink="http://www.w3.org/1999/xlink">
    <!-- Generator: Sketch 54.1 (76490) - https://sketchapp.com -->
    <title>编组 33</title>
    <desc>Created with Sketch.</desc>
    <defs>
        <linearGradient x1="67.4419835%" y1="-7.96106026%" x2="50%" y2="95.6260274%" id="linearGradient-1">
            <stop stop-color="#FFEA00" offset="0%"></stop>
            <stop stop-color="#EDC202" offset="100%"></stop>
        </linearGradient>
        <linearGradient x1="54.4457116%" y1="-13.5175398%" x2="50%" y2="100%" id="linearGradient-2">
            <stop stop-color="#FFEA00" offset="0%"></stop>
            <stop stop-color="#EDC202" offset="100%"></stop>
        </linearGradient>
    </defs>
    <g id="页面-1" stroke="none" stroke-width="1" fill="none" fill-rule="evenodd">
        <g id="预览" transform="translate(-1080.000000, -1109.000000)">
            <g id="编组-34" transform="translate(1081.000000, 1110.000000)">
                <g id="编组-33">
                    <rect id="蒙版" stroke="#DCDCDC" fill="#FFFFFF" x="-0.5" y="-0.5" width="401" height="367" rx="2"></rect>
                    <text id="91.4-kWh" font-family="PingFangSC-Regular, PingFang SC" font-size="20" font-weight="normal" fill="#CCCCCC">
                        <tspan x="233" y="189">91.4 kWh </tspan>
                    </text>
                    <text id="2.12T" font-family="PingFangSC-Regular, PingFang SC" font-size="20" font-weight="normal" fill="#CCCCCC">
                        <tspan x="102" y="189">2.12T</tspan>
                    </text>
                    <text id="1分钟" font-family="PingFangSC-Regular, PingFang SC" font-size="14" font-weight="normal" fill="#CCCCCC">
                        <tspan x="187" y="120">1分钟</tspan>
                    </text>
                    <g id="耗材管理" transform="translate(92.000000, 90.000000)" fill="#4A90E2" fill-rule="nonzero">
                        <path d="M51.348821,24.5266666 L51.348821,7.75999998 L35.1245897,0 L16.6562968,7.03333336 L16.6562968,24.9333333 L0,31.2733334 L0,52.31 L18.4649435,60 L34.6992228,52.2 L34.6992228,52.1233334 L50.7626854,60 L66.9869166,52.1933333 L66.9869166,32.0066667 L51.348821,24.5266666 Z M48.9439906,25.0466667 L35.1145417,31.2 L35.1145417,18.6766666 L48.94734,12.3166666 L48.94734,25.0466667 L48.9439906,25.0466667 Z M35.1245897,3.59666666 L47.9190908,9.34000002 L35.1245897,15.0066667 L20.7659441,9.34000002 L35.1245897,3.59666666 Z M4.0995993,33.5833334 L18.4582449,27.84 L31.2594446,33.5833334 L18.4649435,39.25 L4.0995993,33.5833334 Z M32.2876938,49.5266667 L18.4649435,56.1233333 L18.4649435,42.9233333 L32.2977419,36.5633333 L32.2977419,49.5266667 L32.2876938,49.5266667 L32.2876938,49.5266667 Z M37.2815684,33.5833334 L50.7526374,27.84 L63.5471385,33.5833334 L50.7526374,39.25 L37.2815684,33.5833334 L37.2815684,33.5833334 Z M64.5820863,49.5266667 L50.7526374,56.1233333 L50.7526374,42.9233333 L64.5854356,36.5633333 L64.5854356,49.5266667 L64.5820863,49.5266667 Z" id="形状"></path>
                    </g>
                    <g id="电价" transform="translate(243.000000, 93.000000)" fill-rule="nonzero">
                        <path d="M30.1807468,60 C25.6719405,60 21.5388681,58.875 17.4057957,57.375 C7.63671546,52.875 0.873506067,43.5 0.122038356,32.625 C-1.00516321,20.25 5.75804618,8.25 17.0300618,3 C18.9087311,2.25 21.1631342,3 21.914602,4.875 C22.6660697,6.75 21.914602,9 20.0359327,9.75 C11.7697879,13.875 6.50951389,22.875 7.2609816,31.875 C8.01244932,39.75 12.8969894,46.875 20.4116665,50.25 C23.7932712,51.75 27.9263436,52.5 31.6836822,52.125 C33.9380853,52.125 35.8167546,51.375 38.0711577,50.625 C47.4645041,46.875 53.1005119,37.5 52.3490442,27.75 C51.9733104,21.75 48.9674395,16.5 44.8343671,12.75 C43.3314317,11.25 42.9556978,9 44.4586333,7.5 C45.9615687,6 48.2159718,5.625 49.7189072,7.125 C55.7306489,12.375 59.1122536,19.5 59.8637213,27 C60.9909229,40.125 53.1005119,52.875 40.7012947,57.75 C38.0711577,58.875 35.4410207,59.25 32.4351499,59.625 C32.059416,60 30.9322145,60 30.1807468,60 Z" id="路径" fill="url(#linearGradient-1)"></path>
                        <polygon id="路径" fill="url(#linearGradient-2)" points="29.0535452 1.125 42.2042301 0 34.3138192 21 45.9615687 21 23.4175374 48.375 31.3079483 27.75 21.5388681 28.5"></polygon>
                    </g>
                    <g id="双向箭头" transform="translate(187.000000, 125.000000)" fill="#CCCCCC" fill-rule="nonzero">
                        <path d="M35.9921909,0.537383648 L0.00780911063,0.537383648 L13.1696965,9.95886792 C13.2004385,9.98126338 13.2411262,9.98420293 13.2747297,9.96645626 C13.3083333,9.94870958 13.3290573,9.91333744 13.3282277,9.87514465 L13.3282277,3.53330818 L35.9921909,3.53330818 L35.9921909,0.537383648 L35.9921909,0.537383648 Z" id="形状"></path>
                    </g>
                </g>
            </g>
        </g>
    </g>
</svg>