<?xml version="1.0" encoding="UTF-8"?>
<svg width="402px" height="368px" viewBox="0 0 402 368" version="1.1" xmlns="http://www.w3.org/2000/svg" xmlns:xlink="http://www.w3.org/1999/xlink">
    <!-- Generator: Sketch 54.1 (76490) - https://sketchapp.com -->
    <title>编组 35</title>
    <desc>Created with Sketch.</desc>
    <defs>
        <path d="M10.8157895,1.10737913e-11 L129,-2.18278728e-11 C131.209139,-2.242476e-11 133,1.790861 133,4 L133,60 C133,62.209139 131.209139,64 129,64 L77.7284982,64 L61.4684121,64 L10.8157895,64 C8.60665047,64 6.81578947,62.209139 6.81578947,60 L6.81578947,38.96875 L-1.15359111e-16,33.6 L6.81578947,27.23125 L6.81578947,4 C6.81578947,1.790861 8.60665047,1.27196344e-11 10.8157895,1.21227473e-11 Z" id="path-1"></path>
        <filter x="-3.0%" y="-3.1%" width="106.0%" height="112.5%" filterUnits="objectBoundingBox" id="filter-2">
            <feOffset dx="0" dy="2" in="SourceAlpha" result="shadowOffsetOuter1"></feOffset>
            <feGaussianBlur stdDeviation="1" in="shadowOffsetOuter1" result="shadowBlurOuter1"></feGaussianBlur>
            <feComposite in="shadowBlurOuter1" in2="SourceAlpha" operator="out" result="shadowBlurOuter1"></feComposite>
            <feColorMatrix values="0 0 0 0 0   0 0 0 0 0   0 0 0 0 0  0 0 0 0.08 0" type="matrix" in="shadowBlurOuter1"></feColorMatrix>
        </filter>
        <filter x="-7.3%" y="-6.1%" width="114.6%" height="112.1%" filterUnits="objectBoundingBox" id="filter-3">
            <feOffset dx="0" dy="1" in="SourceAlpha" result="shadowOffsetOuter1"></feOffset>
            <feGaussianBlur stdDeviation="1" in="shadowOffsetOuter1" result="shadowBlurOuter1"></feGaussianBlur>
            <feColorMatrix values="0 0 0 0 0   0 0 0 0 0   0 0 0 0 0  0 0 0 0.297073143 0" type="matrix" in="shadowBlurOuter1" result="shadowMatrixOuter1"></feColorMatrix>
            <feMerge>
                <feMergeNode in="shadowMatrixOuter1"></feMergeNode>
                <feMergeNode in="SourceGraphic"></feMergeNode>
            </feMerge>
        </filter>
        <linearGradient x1="50%" y1="8.59375%" x2="50%" y2="100%" id="linearGradient-4">
            <stop stop-color="#FAD961" offset="0%"></stop>
            <stop stop-color="#F76B1C" offset="100%"></stop>
        </linearGradient>
        <path d="M44.75,77 C47.6675422,77 52.5842089,77 59.5,77 C59.5,56.3465912 59.5,44.7632578 59.5,42.25 C59.5,34.1037999 52.8962001,27.5 44.75,27.5 C36.6037999,27.5 30,34.1037999 30,42.25 C30,45.0164131 30,56.5997464 30,77 C37.1689464,77 42.085613,77 44.75,77 Z" id="path-5"></path>
        <filter x="-62.7%" y="-35.4%" width="225.4%" height="174.7%" filterUnits="objectBoundingBox" id="filter-6">
            <feMorphology radius="1" operator="dilate" in="SourceAlpha" result="shadowSpreadOuter1"></feMorphology>
            <feOffset dx="0" dy="1" in="shadowSpreadOuter1" result="shadowOffsetOuter1"></feOffset>
            <feGaussianBlur stdDeviation="5" in="shadowOffsetOuter1" result="shadowBlurOuter1"></feGaussianBlur>
            <feColorMatrix values="0 0 0 0 0.975233844   0 0 0 0 0.759050348   0 0 0 0 0.60434561  0 0 0 1 0" type="matrix" in="shadowBlurOuter1"></feColorMatrix>
        </filter>
        <linearGradient x1="-3.40589888%" y1="50%" x2="100%" y2="50%" id="linearGradient-7">
            <stop stop-color="#9A9A9A" offset="0%"></stop>
            <stop stop-color="#E1E1E1" offset="22.5933786%"></stop>
            <stop stop-color="#F5F5F5" offset="55.0233447%"></stop>
            <stop stop-color="#D7D7D7" offset="81.4219015%"></stop>
            <stop stop-color="#A3A3A3" offset="100%"></stop>
        </linearGradient>
        <linearGradient x1="6.60470546%" y1="10.8336636%" x2="103.868085%" y2="95.3695274%" id="linearGradient-8">
            <stop stop-color="#BDBDBD" offset="0%"></stop>
            <stop stop-color="#727272" offset="100%"></stop>
        </linearGradient>
        <text id="text-9" font-family="MicrosoftYaHeiUI-Bold, Microsoft YaHei UI" font-size="23" font-weight="bold" fill="#494949" fill-opacity="0.428103147">
            <tspan x="15.5" y="98.5">报  警</tspan>
        </text>
        <filter x="-8.3%" y="-13.8%" width="116.7%" height="134.5%" filterUnits="objectBoundingBox" id="filter-10">
            <feOffset dx="0" dy="1" in="SourceAlpha" result="shadowOffsetOuter1"></feOffset>
            <feGaussianBlur stdDeviation="1.5" in="shadowOffsetOuter1" result="shadowBlurOuter1"></feGaussianBlur>
            <feColorMatrix values="0 0 0 0 0   0 0 0 0 0   0 0 0 0 0  0 0 0 0.0823709239 0" type="matrix" in="shadowBlurOuter1"></feColorMatrix>
        </filter>
        <filter x="-71.4%" y="-71.4%" width="242.9%" height="242.9%" filterUnits="objectBoundingBox" id="filter-11">
            <feGaussianBlur stdDeviation="5" in="SourceGraphic"></feGaussianBlur>
        </filter>
    </defs>
    <g id="页面-1" stroke="none" stroke-width="1" fill="none" fill-rule="evenodd">
        <g id="预览" transform="translate(-1589.000000, -1109.000000)">
            <g id="编组-36" transform="translate(1590.000000, 1110.000000)">
                <g id="编组-35">
                    <rect id="蒙版" stroke="#DCDCDC" fill="#FFFFFF" x="-0.5" y="-0.5" width="401" height="367" rx="2"></rect>
                    <g id="Flyout" transform="translate(197.000000, 101.000000)">
                        <g id="BG">
                            <use fill="black" fill-opacity="1" filter="url(#filter-2)" xlink:href="#path-1"></use>
                            <path stroke="#ECEDEE" stroke-width="1" d="M0.766967024,33.5676481 L7.31578947,38.72611 L7.31578947,60 C7.31578947,61.9329966 8.88279285,63.5 10.8157895,63.5 L61.4684121,63.5 L129,63.5 C130.932997,63.5 132.5,61.9329966 132.5,60 L132.5,4 C132.5,2.06700338 130.932997,0.5 129,0.5 L10.8157895,0.5 C8.88279285,0.5 7.31578947,2.06700338 7.31578947,4 L7.31578947,27.4483551 L0.766967024,33.5676481 Z" stroke-linejoin="square" fill="#FAFCFE" fill-rule="evenodd"></path>
                        </g>
                        <text id="0.23" font-family="PingFang-SC-Medium, PingFang SC" font-size="32" font-weight="400" fill="#CCCCCC">
                            <tspan x="34" y="45">0.23</tspan>
                        </text>
                    </g>
                    <g id="报警" opacity="0.799144345" transform="translate(97.000000, 78.000000)">
                        <g id="Group" filter="url(#filter-3)" transform="translate(0.500000, 0.000000)">
                            <path d="M45,77 C51.8240818,77 63.3240818,77 79.5,77 C79.5,59.8784674 79.5,48.3784674 79.5,42.5 C79.5,23.4461761 64.0538239,8 45,8 C25.9461761,8 10.5,23.4461761 10.5,42.5 C10.5,48.9705933 10.5,60.4705933 10.5,77 C27.268044,77 38.768044,77 45,77 Z" id="Oval-3" fill="#FF673D"></path>
                            <g id="Oval-3-Copy" opacity="0.755655317">
                                <use fill="black" fill-opacity="1" filter="url(#filter-6)" xlink:href="#path-5"></use>
                                <use fill="url(#linearGradient-4)" fill-rule="evenodd" xlink:href="#path-5"></use>
                            </g>
                            <path d="M49.2998226,53 L40.7482809,53 L42.1382451,76.757371 L41.6390987,76.7865743 L40.2474259,53 L39,53 L39,51 L50.5,51 L50.5,53 L49.8004351,53 L48.6080925,77.0797468 L48.1087044,77.0550189 L49.2998226,53 Z" id="Combined-Shape" fill="#FAC978"></path>
                            <path d="M8,71 L81,71 C85.418278,71 89,74.581722 89,79 L89,103.5 C89,105.156854 87.6568542,106.5 86,106.5 L3,106.5 C1.34314575,106.5 2.02906125e-16,105.156854 0,103.5 L0,79 C-5.41083001e-16,74.581722 3.581722,71 8,71 Z" id="Rectangle-2" fill="url(#linearGradient-7)"></path>
                            <path d="M85.5,75 L85.5,51 L62.5,51 L62.5,75 L85.5,75 Z M85.5,77 L2.5,77 L0.5,77 L0.5,43.5 C0.5,19.4756134 19.9756134,0 44,0 C68.0243866,0 87.5,19.4756134 87.5,43.5 L87.5,77 L85.5,77 Z M2.5,75 L25.5,75 L25.5,51 L2.5,51 L2.5,75 Z M27.5,75 L60.5,75 L60.5,51 L27.5,51 L27.5,75 Z M85.5,49 L85.5,43.5 C85.5,36.8524727 83.9370397,30.5699943 81.1585542,25 L61.2305817,25 C62.0383082,29.341494 62.4850296,34.0640928 62.4996303,39 L62.5,49 L85.5,49 Z M2.5,49 L25.5,49 L25.5,39 C25.5149704,34.0640928 25.9616918,29.341494 26.7694183,25 L7,25 L7,24.6855089 C4.12249092,30.333071 2.5,36.727059 2.5,43.5 L2.5,49 Z M27.5,49 L60.5,49 L60.5,39.25 C60.5,34.1912724 60.0310811,29.377816 59.1897195,25 L28.8102805,25 C27.9689189,29.377816 27.5,34.1912724 27.5,39.25 L27.5,49 Z M80.0914984,23 C73.8633516,12.0585503 62.8032798,4.22536848 49.8150154,2.40418697 C54.7582823,5.76157559 58.7166672,13.3055605 60.8272107,23 L80.0914984,23 Z M7.90850163,23 L27.1727893,23 C29.2833328,13.3055605 33.2417177,5.76157559 38.1849846,2.40418697 C25.1967202,4.22536848 14.1366484,12.0585503 7.90850163,23 Z M29.227187,23 L58.7728073,23 C56.033606,10.8340286 50.3488055,2.5 44,2.5 C37.651195,2.5 31.966395,10.8340273 29.2271934,22.999997 Z" id="Combined-Shape" fill="url(#linearGradient-8)" fill-rule="nonzero" opacity="0.500174907"></path>
                        </g>
                        <g id="报-警" fill="#494949" fill-opacity="0.428103147">
                            <use filter="url(#filter-10)" xlink:href="#text-9"></use>
                            <use xlink:href="#text-9"></use>
                        </g>
                        <circle id="Oval-5" fill="#FFEDD8" filter="url(#filter-11)" cx="53" cy="37.5" r="10.5"></circle>
                    </g>
                </g>
            </g>
        </g>
    </g>
</svg>