<?xml version="1.0" encoding="UTF-8"?>
<svg width="402px" height="368px" viewBox="0 0 402 368" version="1.1" xmlns="http://www.w3.org/2000/svg" xmlns:xlink="http://www.w3.org/1999/xlink">
    <!-- Generator: Sketch 54.1 (76490) - https://sketchapp.com -->
    <title>编组 49</title>
    <desc>Created with Sketch.</desc>
    <defs>
        <rect id="path-1" x="0" y="0" width="400" height="366" rx="2"></rect>
        <linearGradient x1="44.1785193%" y1="-30.4792225%" x2="44.1785193%" y2="118.322721%" id="linearGradient-3">
            <stop stop-color="#CCCCCC" offset="0%"></stop>
            <stop stop-color="#9D9D9D" offset="100%"></stop>
        </linearGradient>
        <linearGradient x1="44.1785193%" y1="-30.4792225%" x2="44.1785193%" y2="118.322721%" id="linearGradient-4">
            <stop stop-color="#CCCCCC" offset="0%"></stop>
            <stop stop-color="#9D9D9D" offset="100%"></stop>
        </linearGradient>
    </defs>
    <g id="页面-1" stroke="none" stroke-width="1" fill="none" fill-rule="evenodd">
        <g id="预览" transform="translate(-1080.000000, -2098.000000)">
            <g id="编组-50" transform="translate(1081.000000, 2099.000000)">
                <g id="编组-49">
                    <g id="编组-3">
                        <mask id="mask-2" fill="white">
                            <use xlink:href="#path-1"></use>
                        </mask>
                        <rect stroke="#DCDCDC" x="-0.5" y="-0.5" width="401" height="367" rx="2"></rect>
                    </g>
                    <g id="编组" transform="translate(35.000000, 118.000000)">
                        <g id="Group-2">
                            <g id="Group-37" transform="translate(0.122772, 0.478261)">
                                <path d="M8.48742298,0.60406437 L0.00671687537,61.9001394 C-0.0462669099,62.2830907 0.221224674,62.636486 0.60417605,62.6894698 C0.874602849,62.7268851 1.14210856,62.603668 1.28943446,62.3738297 L10.2712701,48.3615634 C10.4798983,48.0360894 10.3851761,47.6031141 10.0597021,47.3944859 C9.94696246,47.32222 9.81585993,47.2838087 9.68194733,47.2838087 L8.21428437,47.2838087 C7.29942512,47.2838087 6.55778516,46.5421687 6.55778516,45.6273095 L6.55778516,45.6273095 C6.55778516,44.7134809 7.29858957,43.9726765 8.21241812,43.9726765 C8.21303985,43.9726765 8.21366158,43.9726769 8.21428332,43.9726776 L100.28228,44.0764622 C100.668879,44.076898 100.982633,43.7638508 100.983069,43.3772517 C100.983151,43.3040215 100.971742,43.2312318 100.949258,43.1615386 L94.8852391,24.3652061 C94.8294689,24.1923379 94.8430787,24.00456 94.9231935,23.8415405 L106.14422,1.00874165 C106.314733,0.661777317 106.171692,0.242278802 105.824727,0.0717654961 C105.728655,0.0245511985 105.623033,-1.3709077e-14 105.515986,-1.58761893e-14 L9.18081779,1.66533454e-15 C8.83128878,2.66087435e-15 8.53532625,0.257833513 8.48742298,0.60406437 Z" id="Path-9-Copy-3" fill="#FF4280" opacity="0.919596354"></path>
                                <path d="M33.9690528,14.8430108 L33.5160304,18.1698925 L31.0895678,18.1698925 L31.854757,12.5505376 L38.3253239,12.5505376 C38.2392497,11.544086 38.0644555,10.3698925 37.8870964,9.41935484 L40.5380049,9 C40.807891,10.0903226 41.0397079,11.4602151 41.1422517,12.5505376 L47.4454764,12.5505376 L46.6840941,18.1419355 L44.1739603,18.1419355 L44.6231759,14.8430108 L33.9690528,14.8430108 Z M40.9850353,22.3075269 L36.3552331,22.3075269 C35.6223077,23.5935484 34.8931892,24.8516129 34.1831052,25.9698925 C35.3506131,26.6129032 36.5700949,27.283871 37.7819628,28.0107527 C39.2109055,26.5290323 40.2190087,24.655914 40.9850353,22.3075269 Z M46.5073295,22.3075269 L43.7740728,22.3075269 C42.796263,25.1870968 41.5396304,27.4516129 39.8976624,29.2688172 C41.9018006,30.5268817 43.766487,31.7849462 44.9884527,32.8473118 L42.8456999,34.8602151 C41.679515,33.7978495 39.8820301,32.455914 37.8335319,31.1139785 C35.5893964,32.8473118 32.7799206,34.0215054 29.2630875,34.8602151 C29.1794973,34.2451613 28.7181856,33.1268817 28.3442709,32.5956989 C31.3565123,31.9806452 33.7894276,31.1139785 35.729253,29.772043 C34.0331509,28.7096774 32.2457639,27.7032258 30.6624653,26.8365591 C31.558926,25.5784946 32.5530436,24.0129032 33.5383053,22.3075269 L30.0798989,22.3075269 L30.0999326,24.2086022 C28.9627182,24.572043 27.7976133,24.9354839 26.6642058,25.2709677 L25.7543539,31.9526882 C25.5754291,33.2666667 25.2051594,33.9376344 24.3709322,34.3290323 C23.5088146,34.7204301 22.2981077,34.8043011 20.4332595,34.7763441 C20.4333405,34.1612903 20.2154282,33.0989247 20,32.427957 C21.1637819,32.483871 22.3351776,32.483871 22.673669,32.455914 C23.0362439,32.455914 23.2188138,32.344086 23.2759175,31.9247312 L24.0791758,26.0258065 L20.5952821,27.0322581 L20.3800966,24.516129 C21.5058903,24.2365591 22.9220085,23.8731183 24.4294117,23.4537634 L25.3088083,16.9956989 L21.7667307,16.9956989 L22.0941251,14.5913978 L25.6362027,14.5913978 L26.3747435,9.16774194 L28.8569869,9.16774194 L28.118446,14.5913978 L30.9353738,14.5913978 L30.6079794,16.9956989 L27.7910516,16.9956989 L27.0068278,22.7548387 L29.7034193,22 L29.9813238,19.9591398 L34.8063586,19.9591398 C35.5545117,18.5612903 36.2228005,17.1354839 36.7364099,15.8215054 L39.3326987,16.2129032 C38.8622074,17.4150538 38.2408435,18.7010753 37.5953961,19.9591398 L46.82711,19.9591398 L46.5073295,22.3075269 Z M59.3086596,15.3462366 L58.8137611,18.9806452 L56.49886,18.9806452 L57.2374009,13.5569892 L67.7799625,13.5569892 L67.9626942,12.2150538 L59.0935551,12.2150538 L59.3714597,10.1741935 L79.5919812,10.1741935 L79.3140767,12.2150538 L70.4728279,12.2150538 L70.2900962,13.5569892 L81,13.5569892 L80.2614591,18.9806452 L77.8349966,18.9806452 L78.3298951,15.3462366 L70.0464538,15.3462366 L69.178478,21.7204301 L66.6683443,21.7204301 L67.5363201,15.3462366 L59.3086596,15.3462366 Z M70.4539023,21.1612903 L70.6785101,19.511828 L77.3443096,19.511828 L77.1197018,21.1612903 L70.4539023,21.1612903 Z M71.070622,16.6322581 L77.0112718,16.6322581 L76.7904709,18.2537634 L70.8498211,18.2537634 L71.070622,16.6322581 Z M66.2455872,16.6322581 L66.0247863,18.2537634 L60.0841366,18.2537634 L60.3049374,16.6322581 L66.2455872,16.6322581 Z M59.1063268,21.1333333 L59.3271277,19.511828 L65.8534753,19.511828 L65.6326744,21.1333333 L59.1063268,21.1333333 Z M79.7231998,24.572043 L68.6507211,24.572043 C68.347653,25.1591398 68.0483918,25.7182796 67.7529374,26.2494624 L78.0165953,26.2494624 L77.1714609,32.455914 C77.0191844,33.5741935 76.7325859,34.2451613 75.9021656,34.6086022 C75.0438549,34.972043 73.9802137,35 72.5020239,35 C72.4818283,34.3290323 72.2803857,33.3505376 72.0294532,32.7354839 C72.9460287,32.7634409 73.9500822,32.7634409 74.2289859,32.7634409 C74.5395869,32.7354839 74.6308719,32.6795699 74.668941,32.4 L75.2209432,28.3462366 L71.483633,28.3462366 L70.6346917,34.5806452 L68.2640099,34.5806452 L69.1129512,28.3462366 L65.4593121,28.3462366 L64.6103708,34.5806452 L62.239689,34.5806452 L63.0886303,28.3462366 L59.5465527,28.3462366 L58.6785769,34.7204301 L56.1963335,34.7204301 L57.3498277,26.2494624 L65.3264749,26.2494624 C65.5661484,25.7182796 65.8134358,25.1311828 66.0290259,24.572043 L55.4864643,24.572043 L55.7681758,22.5032258 L80.0049113,22.5032258 L79.7231998,24.572043 Z" id="按-需" fill="#FFFFFF"></path>
                            </g>
                        </g>
                        <g id="Group-4" transform="translate(216.326733, 0.000000)" opacity="0.451474144">
                            <g id="Group-3">
                                <path d="M8.51480648,0.603646372 L0.00677982659,61.8252993 C-0.0464348125,62.2082186 0.220843677,62.5617751 0.603763042,62.6149897 C0.87381297,62.6525188 1.14108194,62.5298346 1.28867705,62.3005944 L10.3025896,48.3004609 C10.5118733,47.975408 10.4180237,47.5422426 10.0929708,47.332959 C9.97997349,47.2602063 9.84842174,47.2215194 9.71402925,47.2215194 L8.2335219,47.2215194 C7.31986784,47.2215194 6.57920488,46.4808564 6.57920488,45.5672024 L6.57920488,45.5672024 C6.57920488,44.6545731 7.31903708,43.9147409 8.23166634,43.9147409 C8.23228451,43.9147409 8.23290268,43.9147413 8.23352086,43.914742 L100.597609,44.0184 C100.984208,44.0188339 101.297961,43.7057851 101.298394,43.319186 C101.298477,43.2456524 101.286973,43.172565 101.264304,43.1026125 L95.1825107,24.3345345 C95.1262883,24.1610352 95.1400006,23.9724436 95.220729,23.8089019 L106.474933,1.00984462 C106.646055,0.663180313 106.50375,0.243431204 106.157086,0.0723087455 C106.060724,0.024741975 105.954704,-2.35120893e-15 105.847242,-2.33146835e-15 L9.20814332,1.11022302e-15 C8.8587747,1.174401e-15 8.56289639,0.257603314 8.51480648,0.603646372 Z" id="Path-9-Copy" fill="#8B8B8B"></path>
                                <path d="M35.5503285,15.6791604 L35.1307731,18.6229385 L32.9297748,18.6229385 L33.6384356,13.6506747 L39.5077645,13.6506747 C39.4322982,12.7601199 39.2767906,11.7211394 39.1183764,10.88006 L41.5240529,10.5089955 C41.766034,11.4737631 41.9727584,12.685907 42.0629465,13.6506747 L47.7804824,13.6506747 L47.0753472,18.5982009 L44.7984524,18.5982009 L45.2144822,15.6791604 L35.5503285,15.6791604 Z M41.8950366,22.2841079 L37.6954305,22.2841079 C37.0272728,23.422039 36.3626408,24.5352324 35.7156371,25.5247376 C36.772994,26.0937031 37.8774228,26.6874063 38.9748003,27.3305847 C40.2748097,26.0194903 41.1940985,24.362069 41.8950366,22.2841079 Z M46.9042052,22.2841079 L44.4249197,22.2841079 C43.5304996,24.832084 42.3847596,26.8358321 40.8906491,28.4437781 C42.7053026,29.5569715 44.3934618,30.6701649 45.4991289,31.6101949 L43.5502585,33.3913043 C42.4951891,32.4512744 40.8682045,31.2638681 39.0135305,30.0764618 C36.9734227,31.6101949 34.4219553,32.6491754 31.2297276,33.3913043 C31.1554995,32.8470765 30.7399522,31.8575712 30.4021588,31.3875562 C33.1361009,30.8433283 35.3451999,30.0764618 37.1082587,28.8890555 C35.5725115,27.9490255 33.9538165,27.0584708 32.5198837,26.2916042 C33.3363087,25.1784108 34.2421139,23.7931034 35.1402485,22.2841079 L32.0031934,22.2841079 L32.0164358,23.9662669 C30.9839476,24.2878561 29.9261605,24.6094453 28.897198,24.9062969 L28.0545615,30.8185907 C27.8888547,31.9812594 27.5512502,32.5749625 26.7935234,32.9212894 C26.0104979,33.2676162 24.9120711,33.3418291 23.220575,33.3170915 C23.2222434,32.7728636 23.0273343,31.8328336 22.8336634,31.2391304 C23.8891629,31.2886057 24.9517139,31.2886057 25.2588255,31.2638681 C25.5877103,31.2638681 25.753606,31.1649175 25.8064912,30.7938531 L26.5504088,25.5742129 L23.3876246,26.4647676 L23.1989588,24.2383808 C24.22087,23.9910045 25.5063466,23.6694153 26.8747709,23.2983508 L27.6892021,17.583958 L24.4762505,17.583958 L24.7794586,15.4565217 L27.9924102,15.4565217 L28.6763913,10.6574213 L30.9279873,10.6574213 L30.2440062,15.4565217 L32.7991882,15.4565217 L32.49598,17.583958 L29.9407981,17.583958 L29.2145088,22.67991 L31.6624934,22.011994 L31.9198677,20.2061469 L36.2965656,20.2061469 C36.978826,18.9692654 37.5887156,17.7076462 38.0580084,16.5449775 L40.4120379,16.8913043 C39.9821467,17.9550225 39.4151843,19.0929535 38.8264487,20.2061469 L47.200362,20.2061469 L46.9042052,22.2841079 Z M59.1186926,14.8628186 L58.7308683,17.583958 L56.4286746,17.583958 L57.1126557,12.7848576 L66.6503152,12.7848576 C66.4854688,12.1664168 66.2735504,11.5232384 66.0510549,10.9542729 L68.553782,10.4347826 C68.8851432,11.1274363 69.235371,12.0427286 69.4331867,12.7848576 L78.2118812,12.7848576 L77.5279001,17.583958 L75.1498099,17.583958 L75.5376343,14.8628186 L59.1186926,14.8628186 Z M68.9244401,17.0644678 L70.7304261,15.7533733 C72.7480893,17.0397301 75.3248032,19.0187406 76.5188011,20.404048 L74.6122388,21.8883058 C73.4906117,20.5277361 71.0038971,18.4497751 68.9244401,17.0644678 Z M62.891314,15.7286357 L64.9865421,16.4707646 C63.0606831,18.6229385 60.21287,20.6761619 57.7308669,21.9377811 C57.4619185,21.5172414 56.7828059,20.601949 56.358539,20.2061469 C58.7329145,19.1671664 61.2748541,17.4850075 62.891314,15.7286357 Z M61.4103412,25.0547226 L70.897403,25.0547226 C69.2851403,23.9415292 67.874649,22.6551724 66.5605892,21.0472264 C65.0335094,22.5314843 63.2710697,23.892054 61.4103412,25.0547226 Z M60.3240552,30.5464768 L69.8870135,30.5464768 L70.3806081,27.0832084 L60.8176498,27.0832084 L60.3240552,30.5464768 Z M66.6218162,17.9550225 L68.5476229,18.8208396 C68.3893977,19.0434783 68.2093993,19.2413793 68.0294009,19.4392804 C70.4327376,22.4572714 73.6307261,24.3373313 77.4199266,25.7968516 C76.7928388,26.2916042 76.0510721,27.0584708 75.6305197,27.7016492 C74.6785029,27.2811094 73.762362,26.7863568 72.8932931,26.3163418 L71.9025782,33.2676162 L69.4991892,33.2676162 L69.5979081,32.5749625 L60.0349498,32.5749625 L59.9256538,33.3418291 L57.6234602,33.3418291 L58.582444,26.6131934 C57.5217504,27.1326837 56.4139848,27.6274363 55.3203219,28.0232384 C55.0725276,27.4542729 54.5528785,26.6626687 54.0921165,26.167916 C58.9509716,24.55997 63.7472249,21.6161919 66.6218162,17.9550225 Z" id="按-容" fill="#FFFFFF"></path>
                            </g>
                        </g>
                        <g id="Group-36" opacity="0.482468378" transform="translate(113.683168, 18.086957)">
                            <path d="M30.5275918,13.6446092 L28.3967111,-3.48856205 L35.0760646,-3.48856205 L35.6490177,7.37949432 L40.9992648,-3.48856205 L47.4265673,-3.48856205 L38.0891241,13.6446092 L30.5275918,13.6446092 Z M46.3346444,8.27451072 L52.7619468,8.27451072 C52.5977836,9.04167148 52.7312716,9.59572371 53.1624148,9.93668405 C53.5277809,10.1924043 54.037406,10.3628819 54.6913052,10.448122 C56.1378421,10.3628819 56.9614202,9.85144908 57.1620642,8.91380816 C57.3262274,8.1466474 56.2776814,7.54997576 54.0163947,7.12377534 C49.6800966,6.18613442 47.8038215,4.3535001 48.387513,1.62581741 C49.2376256,-1.95426611 52.2854173,-3.82951983 57.5309796,-4 C62.8240787,-4 65.2555791,-2.20998509 64.8255537,1.37009844 L58.6503024,1.37009844 C58.7597445,0.858657937 58.6317845,0.475083313 58.2664183,0.219363061 C57.9192925,-0.121597275 57.4936837,-0.292074886 56.989579,-0.292074886 C55.7293173,-0.292074886 55.0079955,0.134119141 54.8255919,0.986519981 C54.6979094,1.58320057 55.7226874,2.0946334 57.8999566,2.52083382 C62.5358438,3.62895491 64.5710312,5.50420863 64.0055801,8.14665124 C63.1189868,11.8972149 59.6840022,13.8150881 53.7005232,13.9003281 C48.3416471,13.8150881 45.8863787,11.9398343 46.3346444,8.27451072 Z" id="Combined-Shape" fill="url(#linearGradient-3)"></path>
                            <path d="M3.61440314,4.02435125 L18.1127505,2.62623596 C18.2319827,2.61473807 18.3387086,2.547407 18.4004281,2.44474626 L22.1638614,-3.81513462 C22.2714271,-3.99405326 22.5036685,-4.05189625 22.6825872,-3.94433057 C22.7962809,-3.87597806 22.8658223,-3.75302836 22.8658223,-3.62036972 L22.8658223,13.1305143 C22.8658223,13.3392779 22.6965859,13.5085143 22.4878223,13.5085143 C22.3570948,13.5085143 22.2356469,13.4409676 22.166689,13.3299069 L18.3996356,7.26285102 C18.3382129,7.16392611 18.2346248,7.09883108 18.1188472,7.08640287 L3.60627992,5.52854201 C3.19113766,5.48397829 2.89072439,5.11131297 2.9352881,4.69617071 C2.97357927,4.33946154 3.25730121,4.05878756 3.61440314,4.02435125 Z" id="Path-9" fill="url(#linearGradient-4)"></path>
                            <path d="M84.2195474,4.02435125 L98.7178947,2.62623596 C98.837127,2.61473807 98.9438528,2.547407 99.0055723,2.44474626 L102.769006,-3.81513462 C102.876571,-3.99405326 103.108813,-4.05189625 103.287731,-3.94433057 C103.401425,-3.87597806 103.470967,-3.75302836 103.470967,-3.62036972 L103.470967,13.1305143 C103.470967,13.3392779 103.30173,13.5085143 103.092967,13.5085143 C102.962239,13.5085143 102.840791,13.4409676 102.771833,13.3299069 L99.0047799,7.26285102 C98.9433571,7.16392611 98.839769,7.09883108 98.7239915,7.08640287 L84.2114242,5.52854201 C83.7962819,5.48397829 83.4958686,5.11131297 83.5404324,4.69617071 C83.5787235,4.33946154 83.8624455,4.05878756 84.2195474,4.02435125 Z" id="Path-9" fill="url(#linearGradient-4)" transform="translate(86.743776, 4.755031) scale(-1, 1) translate(-86.743776, -4.755031) "></path>
                        </g>
                    </g>
                    <text id="推荐" font-family="PingFang-SC-Regular, PingFang SC" font-size="14" font-weight="normal" fill="#666666">
                        <tspan x="73" y="203">推荐</tspan>
                    </text>
                    <circle id="椭圆形" stroke="#40B7FF" cx="87" cy="141" r="41"></circle>
                </g>
            </g>
        </g>
    </g>
</svg>