<?xml version="1.0" encoding="UTF-8"?>
<svg width="402px" height="368px" viewBox="0 0 402 368" version="1.1" xmlns="http://www.w3.org/2000/svg" xmlns:xlink="http://www.w3.org/1999/xlink">
    <!-- Generator: Sketch 54.1 (76490) - https://sketchapp.com -->
    <title>编组 13</title>
    <desc>Created with Sketch.</desc>
    <defs>
        <polygon id="path-1" points="4 10 6 10 6 149 4 149"></polygon>
        <mask id="mask-2" maskContentUnits="userSpaceOnUse" maskUnits="objectBoundingBox" x="0" y="0" width="2" height="139" fill="white">
            <use xlink:href="#path-1"></use>
        </mask>
        <path d="M4,0 L120,-8.8817842e-16 C122.209139,6.55444767e-15 124,1.790861 124,4 L124,18.4686038 L131,24.373385 L124,30.9570995 L124,65 C124,67.209139 122.209139,69 120,69 L4,69 C1.790861,69 2.705415e-16,67.209139 0,65 L0,4 C-2.705415e-16,1.790861 1.790861,4.05812251e-16 4,0 Z" id="path-3"></path>
        <filter x="-3.1%" y="-2.9%" width="106.1%" height="111.6%" filterUnits="objectBoundingBox" id="filter-4">
            <feOffset dx="0" dy="2" in="SourceAlpha" result="shadowOffsetOuter1"></feOffset>
            <feGaussianBlur stdDeviation="1" in="shadowOffsetOuter1" result="shadowBlurOuter1"></feGaussianBlur>
            <feComposite in="shadowBlurOuter1" in2="SourceAlpha" operator="out" result="shadowBlurOuter1"></feComposite>
            <feColorMatrix values="0 0 0 0 0   0 0 0 0 0   0 0 0 0 0  0 0 0 0.08 0" type="matrix" in="shadowBlurOuter1"></feColorMatrix>
        </filter>
    </defs>
    <g id="页面-1" stroke="none" stroke-width="1" fill="none" fill-rule="evenodd">
        <g id="预览" transform="translate(-605.000000, -112.000000)">
            <g id="编组-14" transform="translate(606.000000, 113.000000)">
                <g id="编组-13">
                    <rect id="蒙版" stroke="#DCDCDC" fill="#FFFFFF" x="-0.5" y="-0.5" width="401" height="367" rx="2"></rect>
                    <g id="编组-7" transform="translate(26.000000, 28.000000)">
                        <g id="编组-6">
                            <path d="M334.970602,165.5 L31.5747464,165.618113" id="Line-Copy-11" stroke="#CCCCCC" opacity="0.5" stroke-linecap="square"></path>
                            <path d="M334.970602,135.5 L31.5747464,135.618113" id="Line-Copy-11复制" stroke="#CCCCCC" opacity="0.5" stroke-linecap="square"></path>
                            <path d="M334.970602,105.5 L31.5747464,105.618113" id="Line-Copy-11复制-2" stroke="#CCCCCC" opacity="0.5" stroke-linecap="square"></path>
                            <path d="M334.970602,72.5 L31.5747464,72.6181129" id="Line-Copy-11复制-3" stroke="#CCCCCC" opacity="0.5" stroke-linecap="square"></path>
                            <path d="M334.970602,35.5 L31.5747464,35.6181129" id="Line-Copy-11复制-4" stroke="#CCCCCC" opacity="0.5" stroke-linecap="square"></path>
                            <g id="Graph" opacity="0.790899368" transform="translate(39.000000, 69.000000)" stroke="#975FE4" stroke-width="2">
                                <path d="M0,73 L37.2733462,21.1928498 C40.7877686,16.3080667 47.59667,15.1971699 52.481453,18.7115923 C53.2314157,19.251163 53.909707,19.883928 54.5,20.5946563 L57.7497347,24.5074225 C61.3925791,28.8935032 66.7984196,31.4308934 72.5,31.4308934 L72.5,31.4308934 C78.0145609,31.4308934 83.0545616,28.3113383 85.5141439,23.3756685 L94.2652284,5.81477466 C96.6272963,1.07478803 102.384649,-0.852895975 107.124636,1.50917192 C107.699381,1.79558344 108.243902,2.13900375 108.75,2.53426112 L110.539435,3.93179204 C115.150782,7.53320828 121.341658,8.37895257 126.75,6.14634016 L126.75,6.14634016 C132.359847,3.83054462 138.652752,3.79959332 144.285107,6.06009472 L153.343355,9.69555094 C153.447784,9.73746288 153.55241,9.77888497 153.657228,9.81981583 L162.75,13.3704982 C168.641673,15.6711672 173.290453,20.349013 175.554356,26.2549107 L183.392612,46.7027547 C185.065934,51.0679887 189.96115,53.2502148 194.326384,51.5768931 C196.219368,50.851257 197.789058,49.4703339 198.75,47.6852491 L198.75,47.6852491 C200.89588,43.698976 205.866971,42.2070423 209.853245,44.3529219 C211.641783,45.315723 213.009154,46.9082819 213.6903,48.8218901 L216.5,56.7154467 C217.999957,60.9294172 222.63201,63.1295601 226.84598,61.6296034 C229.40211,60.7197526 231.332831,58.5903907 231.988815,55.9576516 L234.5,45.8792096 C236.168162,39.1841721 242.947875,35.1090846 249.642913,36.7772468 C253.441085,37.7236146 256.576146,40.3954394 258.1127,43.9955407 L262,53.1033677" id="Graph-segment"></path>
                            </g>
                            <g id="编组" transform="translate(170.000000, 18.000000)" stroke="#76C7BD" stroke-width="2">
                                <use id="Graph-segment" mask="url(#mask-2)" stroke-dasharray="4" xlink:href="#path-1"></use>
                                <circle id="Graph-segment" fill="#FFFFFF" cx="5" cy="5" r="5"></circle>
                            </g>
                            <text id="01:00" font-family="PingFang-SC-Regular, PingFang SC" font-size="14" font-weight="normal" letter-spacing="0.7097536" fill="#CCCCCC">
                                <tspan x="29.119616" y="197">01:00</tspan>
                            </text>
                            <text id="0" font-family="PingFang-SC-Regular, PingFang SC" font-size="14" font-weight="normal" letter-spacing="0.7097536" fill="#CCCCCC">
                                <tspan x="9.4451232" y="171">0</tspan>
                            </text>
                            <text id="10" font-family="PingFang-SC-Regular, PingFang SC" font-size="14" font-weight="normal" letter-spacing="0.7097536" fill="#CCCCCC">
                                <tspan x="0.3902464" y="138">10</tspan>
                            </text>
                            <text id="20" font-family="PingFang-SC-Regular, PingFang SC" font-size="14" font-weight="normal" letter-spacing="0.7097536" fill="#CCCCCC">
                                <tspan x="0.3902464" y="105">20</tspan>
                            </text>
                            <text id="30" font-family="PingFang-SC-Regular, PingFang SC" font-size="14" font-weight="normal" letter-spacing="0.7097536" fill="#CCCCCC">
                                <tspan x="0.3902464" y="72">30</tspan>
                            </text>
                            <text id="40" font-family="PingFang-SC-Regular, PingFang SC" font-size="14" font-weight="normal" letter-spacing="0.7097536" fill="#CCCCCC">
                                <tspan x="0.3902464" y="39">40</tspan>
                            </text>
                            <text id="02:00" font-family="PingFang-SC-Regular, PingFang SC" font-size="14" font-weight="normal" letter-spacing="0.7097536" fill="#CCCCCC">
                                <tspan x="94.869616" y="197">02:00</tspan>
                            </text>
                            <text id="03:00" font-family="PingFang-SC-Regular, PingFang SC" font-size="14" font-weight="normal" letter-spacing="0.7097536" fill="#CCCCCC">
                                <tspan x="160.619616" y="197">03:00</tspan>
                            </text>
                            <text id="04:00" font-family="PingFang-SC-Regular, PingFang SC" font-size="14" font-weight="normal" letter-spacing="0.7097536" fill="#CCCCCC">
                                <tspan x="226.369616" y="197">04:00</tspan>
                            </text>
                            <text id="05:00" font-family="PingFang-SC-Regular, PingFang SC" font-size="14" font-weight="normal" letter-spacing="0.7097536" fill="#CCCCCC">
                                <tspan x="292.119616" y="197">05:00</tspan>
                            </text>
                            <path d="M38,134.840391 C43.9177641,132.143322 49.8355282,130.794788 55.7532923,130.794788 C64.6299384,130.794788 69.0682614,141.920195 80.1640691,141.920195 C91.2598768,141.920195 89.0407152,135.851792 100.136523,135.851792 C111.232331,135.851792 113.451492,149 124.5473,149 C135.643107,149 140.08143,139.897394 151.177238,139.897394 C162.273046,139.897394 160.053884,141.920195 166.711369,141.920195 C173.368853,141.920195 182.2455,132.81759 193.341307,132.81759 C204.437115,132.81759 206.656276,136.863192 219.971246,136.863192 C228.847892,136.863192 234.025935,136.526059 235.505376,135.851792 C250.083154,131.806189 258.782796,132.143322 261.604301,136.863192 C265.836559,143.942997 272.890323,149 280.649462,149 C288.408602,149 293.346237,133.82899 296.167742,128.266287 C298.048746,124.557818 301.105376,125.400651 305.337634,130.794788 C308.629391,133.491857 311.921147,134.840391 315.212903,134.840391" id="Graph-segment" stroke="#FF928F" stroke-width="2"></path>
                            <g id="Flyout" transform="translate(38.000000, 0.000000)">
                                <g id="BG">
                                    <use fill="black" fill-opacity="1" filter="url(#filter-4)" xlink:href="#path-3"></use>
                                    <path stroke="#ECEDEE" stroke-width="1" d="M130.248608,24.3936887 L123.5,18.7009667 L123.5,4 C123.5,2.06700338 121.932997,0.5 120,0.5 L4,0.5 C2.06700338,0.5 0.5,2.06700338 0.5,4 L0.5,65 C0.5,66.9329966 2.06700338,68.5 4,68.5 L120,68.5 C121.932997,68.5 123.5,66.9329966 123.5,65 L123.5,30.7409615 L130.248608,24.3936887 Z" stroke-linejoin="square" fill="#FAFCFE" fill-rule="evenodd"></path>
                                </g>
                                <rect id="Red-label" fill="#FF928F" x="11" y="52" width="6" height="6" rx="1"></rect>
                                <text id="9.3K" font-family="PingFang-SC-Regular, PingFang SC" font-size="12" font-weight="normal" fill="#AFBDD1">
                                    <tspan x="22" y="60">9.4</tspan>
                                </text>
                                <rect id="Blue-label" fill="#AD81EA" x="11" y="34" width="6" height="6" rx="1"></rect>
                                <text id="9.3K" font-family="PingFang-SC-Regular, PingFang SC" font-size="12" font-weight="normal" fill="#AFBDD1">
                                    <tspan x="22" y="42">29.9</tspan>
                                </text>
                                <text id="02:50:45" font-family="PingFang-SC-Regular, PingFang SC" font-size="12" font-weight="normal" fill="#5D6F80">
                                    <tspan x="14" y="22">02:50:45</tspan>
                                </text>
                            </g>
                        </g>
                    </g>
                </g>
            </g>
        </g>
    </g>
</svg>