<?xml version="1.0" encoding="UTF-8"?>
<svg width="402px" height="368px" viewBox="0 0 402 368" version="1.1" xmlns="http://www.w3.org/2000/svg" xmlns:xlink="http://www.w3.org/1999/xlink">
    <!-- Generator: Sketch 54.1 (76490) - https://sketchapp.com -->
    <title>编组 25</title>
    <desc>Created with Sketch.</desc>
    <defs>
        <linearGradient x1="50%" y1="100%" x2="50%" y2="39.6738008%" id="linearGradient-1">
            <stop stop-color="#00F9FF" offset="0%"></stop>
            <stop stop-color="#7EF4F1" stop-opacity="0.175863199" offset="100%"></stop>
        </linearGradient>
    </defs>
    <g id="页面-1" stroke="none" stroke-width="1" fill="none" fill-rule="evenodd">
        <g id="预览" transform="translate(-1589.000000, -611.000000)">
            <g id="编组-26" transform="translate(1590.000000, 612.000000)">
                <g id="编组-25">
                    <rect id="蒙版" stroke="#DCDCDC" fill="#FFFFFF" x="-0.5" y="-0.5" width="401" height="367" rx="2"></rect>
                    <g id="action-completed" transform="translate(72.000000, 36.000000)">
                        <g id="main" transform="translate(0.730544, 0.114325)">
                            <path d="M0.207133231,95.2658053 C-1.08682165,122.391538 57.9589664,144.765121 132.089592,145.238603 C206.220218,145.712084 267.363921,124.106166 268.657876,96.9804332 C269.951831,69.8547007 210.906043,47.4811171 136.775417,47.0076357 C62.6447915,46.5341543 1.50108811,68.1400728 0.207133231,95.2658053 Z" id="Shape-Copy-6" stroke="url(#linearGradient-1)" fill-rule="nonzero"></path>
                            <path d="M0.207133231,100.265805 C-1.08682165,127.391538 57.9589664,149.765121 132.089592,150.238603 C206.220218,150.712084 267.363921,129.106166 268.657876,101.980433 C269.951831,74.8547007 210.906043,52.4811171 136.775417,52.0076357 C62.6447915,51.5341543 1.50108811,73.1400728 0.207133231,100.265805 Z" id="Shape-Copy-7" stroke="url(#linearGradient-1)" fill-rule="nonzero"></path>
                            <path d="M0.207133231,105.265805 C-1.08682165,132.391538 57.9589664,154.765121 132.089592,155.238603 C206.220218,155.712084 267.363921,134.106166 268.657876,106.980433 C269.951831,79.8547007 210.906043,57.4811171 136.775417,57.0076357 C62.6447915,56.5341543 1.50108811,78.1400728 0.207133231,105.265805 Z" id="Shape-Copy-8" stroke="url(#linearGradient-1)" fill-rule="nonzero"></path>
                            <path d="M254.662293,91.7952349 C253.64786,113.061223 190.712519,127.999795 132.595712,127.628596 C74.4789045,127.257397 13.1882837,111.716991 14.2027164,90.4510037 C15.217149,69.185016 78.1524901,49.2464432 136.269297,49.6176424 L136.775417,42.0076357 C62.6447915,41.5341543 1.50108811,63.1400728 0.207133231,90.2658053 C-1.08682165,117.391538 57.9589664,139.765121 132.089592,140.238603 C206.220218,140.712084 267.363921,119.106166 268.657876,91.9804332 C269.951831,64.8547007 210.906043,42.4811171 136.775417,42.0076357 L136.269297,49.6176424 C194.386105,49.9888416 255.676725,70.5292472 254.662293,91.7952349 Z" id="Shape" fill="" fill-rule="nonzero"></path>
                            <text id="71%-" fill="#CCCCCC" font-family=".SFNSDisplay, .SF NS Display" font-size="100" font-weight="normal">
                                <tspan x="74.7871094" y="97">71</tspan>
                                <tspan x="173.810547" y="97" font-size="40">%</tspan>
                                <tspan x="206.212891" y="97"> </tspan>
                            </text>
                        </g>
                    </g>
                </g>
            </g>
        </g>
    </g>
</svg>