<?xml version="1.0" encoding="UTF-8"?>
<svg width="402px" height="368px" viewBox="0 0 402 368" version="1.1" xmlns="http://www.w3.org/2000/svg" xmlns:xlink="http://www.w3.org/1999/xlink">
    <!-- Generator: Sketch 54.1 (76490) - https://sketchapp.com -->
    <title>编组 47</title>
    <desc>Created with Sketch.</desc>
    <g id="页面-1" stroke="none" stroke-width="1" fill="none" fill-rule="evenodd">
        <g id="预览" transform="translate(-605.000000, -2098.000000)">
            <g id="编组-48" transform="translate(606.000000, 2099.000000)">
                <g id="编组-47">
                    <rect id="蒙版" stroke="#DCDCDC" fill="#FFFFFF" x="-0.5" y="-0.5" width="401" height="367" rx="2"></rect>
                    <rect id="矩形" fill="#D8D8D8" x="84" y="63" width="241" height="30" rx="2"></rect>
                    <rect id="矩形复制" fill="#D8D8D8" x="84" y="101" width="241" height="30" rx="2"></rect>
                    <rect id="矩形复制-2" stroke="#00ADFF" x="84.5" y="159.5" width="240" height="29" rx="2"></rect>
                    <text id="09月-需量834kW" font-family="PingFang-SC-Regular, PingFang SC" font-size="18" font-weight="normal" fill="#666666">
                        <tspan x="127.118" y="123">09月  需量834kW</tspan>
                    </text>
                    <text id="08月-需量802kW" font-family="PingFang-SC-Regular, PingFang SC" font-size="18" font-weight="normal" fill="#666666">
                        <tspan x="127.118" y="85">08月  需量802kW</tspan>
                    </text>
                    <text id="10月-预测需量800kW" font-family="PingFang-SC-Regular, PingFang SC" font-size="18" font-weight="normal" fill="#00ADFF">
                        <tspan x="109.118" y="181">10月  预测需量800kW</tspan>
                    </text>
                    <g id="箭头-(1)" transform="translate(121.500000, 146.000000) rotate(-270.000000) translate(-121.500000, -146.000000) translate(111.500000, 143.500000)" fill="#666666" fill-rule="nonzero">
                        <path d="M15.1952895,3.31666667 L14.1746811,3.28333333 L14.1903827,1.86666667 L15.1952895,1.85 L15.1952895,3.31666667 Z M13.1697743,3.23333333 L12.1491658,3.18333333 L12.1648675,1.91666667 L13.1697743,1.9 L13.1697743,3.23333333 Z M11.1442591,3.13333333 L10.1236506,3.1 L10.1393523,1.98333333 L11.1442591,1.96666667 L11.1442591,3.13333333 Z M9.11874387,3.05 L8.09813543,3.01666667 L8.1138371,2.03333333 L9.11874387,2.01666667 L9.11874387,3.05 Z M7.09322866,2.96666667 L6.07262022,2.93333333 L6.08832188,2.1 L7.09322866,2.08333333 L7.09322866,2.96666667 Z M5.06771344,2.86666667 L4.047105,2.83333333 L4.06280667,2.15 L5.06771344,2.13333333 L5.06771344,2.86666667 Z M3.04219823,2.78333333 L2.03729146,2.76666667 L2.03729146,2.21666667 L3.04219823,2.18333333 L3.04219823,2.78333333 Z M1.01668302,2.73333333 L0.0117762512,2.7 L0.0117762512,2.25 L1.01668302,2.23333333 L1.01668302,2.73333333 Z M19.858685,2.23333333 L16.6555447,0.05 C16.4828263,-0.0666666667 16.2473013,0.0833333333 16.2473013,0.316666667 L16.2473013,4.68333333 C16.2473013,4.93333333 16.4671246,5.08333333 16.6555447,4.95 L19.858685,2.76666667 C20.047105,2.65 20.047105,2.35 19.858685,2.23333333 L19.858685,2.23333333 Z" id="形状"></path>
                    </g>
                    <g id="箭头-(1)复制" transform="translate(201.500000, 146.000000) rotate(-270.000000) translate(-201.500000, -146.000000) translate(191.500000, 143.500000)" fill="#666666" fill-rule="nonzero">
                        <path d="M15.1952895,3.31666667 L14.1746811,3.28333333 L14.1903827,1.86666667 L15.1952895,1.85 L15.1952895,3.31666667 Z M13.1697743,3.23333333 L12.1491658,3.18333333 L12.1648675,1.91666667 L13.1697743,1.9 L13.1697743,3.23333333 Z M11.1442591,3.13333333 L10.1236506,3.1 L10.1393523,1.98333333 L11.1442591,1.96666667 L11.1442591,3.13333333 Z M9.11874387,3.05 L8.09813543,3.01666667 L8.1138371,2.03333333 L9.11874387,2.01666667 L9.11874387,3.05 Z M7.09322866,2.96666667 L6.07262022,2.93333333 L6.08832188,2.1 L7.09322866,2.08333333 L7.09322866,2.96666667 Z M5.06771344,2.86666667 L4.047105,2.83333333 L4.06280667,2.15 L5.06771344,2.13333333 L5.06771344,2.86666667 Z M3.04219823,2.78333333 L2.03729146,2.76666667 L2.03729146,2.21666667 L3.04219823,2.18333333 L3.04219823,2.78333333 Z M1.01668302,2.73333333 L0.0117762512,2.7 L0.0117762512,2.25 L1.01668302,2.23333333 L1.01668302,2.73333333 Z M19.858685,2.23333333 L16.6555447,0.05 C16.4828263,-0.0666666667 16.2473013,0.0833333333 16.2473013,0.316666667 L16.2473013,4.68333333 C16.2473013,4.93333333 16.4671246,5.08333333 16.6555447,4.95 L19.858685,2.76666667 C20.047105,2.65 20.047105,2.35 19.858685,2.23333333 L19.858685,2.23333333 Z" id="形状"></path>
                    </g>
                    <g id="箭头-(1)复制-2" transform="translate(281.500000, 146.000000) rotate(-270.000000) translate(-281.500000, -146.000000) translate(271.500000, 143.500000)" fill="#666666" fill-rule="nonzero">
                        <path d="M15.1952895,3.31666667 L14.1746811,3.28333333 L14.1903827,1.86666667 L15.1952895,1.85 L15.1952895,3.31666667 Z M13.1697743,3.23333333 L12.1491658,3.18333333 L12.1648675,1.91666667 L13.1697743,1.9 L13.1697743,3.23333333 Z M11.1442591,3.13333333 L10.1236506,3.1 L10.1393523,1.98333333 L11.1442591,1.96666667 L11.1442591,3.13333333 Z M9.11874387,3.05 L8.09813543,3.01666667 L8.1138371,2.03333333 L9.11874387,2.01666667 L9.11874387,3.05 Z M7.09322866,2.96666667 L6.07262022,2.93333333 L6.08832188,2.1 L7.09322866,2.08333333 L7.09322866,2.96666667 Z M5.06771344,2.86666667 L4.047105,2.83333333 L4.06280667,2.15 L5.06771344,2.13333333 L5.06771344,2.86666667 Z M3.04219823,2.78333333 L2.03729146,2.76666667 L2.03729146,2.21666667 L3.04219823,2.18333333 L3.04219823,2.78333333 Z M1.01668302,2.73333333 L0.0117762512,2.7 L0.0117762512,2.25 L1.01668302,2.23333333 L1.01668302,2.73333333 Z M19.858685,2.23333333 L16.6555447,0.05 C16.4828263,-0.0666666667 16.2473013,0.0833333333 16.2473013,0.316666667 L16.2473013,4.68333333 C16.2473013,4.93333333 16.4671246,5.08333333 16.6555447,4.95 L19.858685,2.76666667 C20.047105,2.65 20.047105,2.35 19.858685,2.23333333 L19.858685,2.23333333 Z" id="形状"></path>
                    </g>
                </g>
            </g>
        </g>
    </g>
</svg>