<?xml version="1.0" encoding="UTF-8"?>
<svg width="20px" height="20px" viewBox="0 0 20 20" version="1.1" xmlns="http://www.w3.org/2000/svg" xmlns:xlink="http://www.w3.org/1999/xlink">
    <g stroke="none" stroke-width="1" fill="none" fill-rule="evenodd">
        <g transform="translate(-936.000000, -250.000000)" fill="#FF8A00">
            <g transform="translate(920.000000, 240.000000)">
                <g transform="translate(16.000000, 10.000000)">
                    <path d="M10,19.375 C4.82233047,19.375 0.625,15.1776695 0.625,10 C0.625,4.82233047 4.82233047,0.625 10,0.625 C15.1776695,0.625 19.375,4.82233047 19.375,10 C19.375,15.1776695 15.1776695,19.375 10,19.375 Z M10.9375,4.375 L9.0625,4.375 L9.26670792,12.5 L10.7332921,12.5 L10.9375,4.375 Z M10.6613372,14.0231299 C10.4772278,13.8410424 10.2567842,13.75 10,13.75 C9.74321577,13.75 9.52277224,13.8410424 9.33866279,14.0231299 C9.15455334,14.2052174 9.0625,14.4266719 9.0625,14.6875 C9.0625,14.9532494 9.15455334,15.1759341 9.33866279,15.355561 C9.52277224,15.5351879 9.74321577,15.625 10,15.625 C10.2567842,15.625 10.4772278,15.5351879 10.6613372,15.355561 C10.8454467,15.1759341 10.9375,14.9532494 10.9375,14.6875 C10.9375,14.4266719 10.8454467,14.2052174 10.6613372,14.0231299 Z"/>
                </g>
            </g>
        </g>
    </g>
</svg>
